<?xml version="1.0" ?><!DOCTYPE svg  PUBLIC '-//W3C//DTD SVG 1.1//EN'  'http://www.w3.org/Graphics/SVG/1.1/DTD/svg11.dtd'><svg enable-background="new 0 0 96 96" height="96px" id="refresh" version="1.1" viewBox="0 0 96 96" width="96px" xml:space="preserve" xmlns="http://www.w3.org/2000/svg" xmlns:xlink="http://www.w3.org/1999/xlink"><path d="M88,16c-2.209,0-4,1.791-4,4v15.431L68.285,19.715l-0.001,0.001C61.046,12.477,51.046,8,40,8C17.909,8,0,25.909,0,48  c0,22.092,17.909,40,40,40c19.352,0,35.492-13.742,39.198-32h-8.206C67.439,69.802,54.91,80,40,80C22.327,80,8,65.673,8,48  c0-17.673,14.327-32,32-32c8.841,0,16.845,3.585,22.636,9.382L77.255,40H64c-2.209,0-4,1.791-4,4s1.791,4,4,4h21.255H88  c2.209,0,4-1.791,4-4V20C92,17.791,90.209,16,88,16z"/></svg>