<?xml version="1.0" ?><!DOCTYPE svg  PUBLIC '-//W3C//DTD SVG 1.1//EN'  'http://www.w3.org/Graphics/SVG/1.1/DTD/svg11.dtd'><svg height="78px" id="Layer_1" style="enable-background:new 0 0 78 78;" version="1.1" viewBox="0 0 78 78" width="78px" xml:space="preserve" xmlns="http://www.w3.org/2000/svg" xmlns:xlink="http://www.w3.org/1999/xlink"><g><path d="M70.5,33h-15V16.5C55.5,7.425,48.075,0,39,0S22.5,7.425,22.5,16.5V33h-15c-1.65,0-3,1.35-3,3v39   c0,1.65,1.35,3,3,3h63c1.65,0,3-1.35,3-3V36C73.5,34.35,72.15,33,70.5,33z M28.5,16.5C28.5,10.71,33.21,6,39,6s10.5,4.71,10.5,10.5   V33h-21V16.5z M67.5,72h-57V39h57V72z" style="fill:#FFF;"/><rect height="12" style="fill:#FFF;" width="6" x="36" y="49.5"/></g></svg>