<?xml version="1.0" ?><!DOCTYPE svg  PUBLIC '-//W3C//DTD SVG 1.1//EN'  'http://www.w3.org/Graphics/SVG/1.1/DTD/svg11.dtd'><svg enable-background="new 0 0 96 96" height="96px" id="air_play" version="1.1" viewBox="0 0 96 96" width="96px" x="0px" xml:space="preserve" xmlns="http://www.w3.org/2000/svg" xmlns:xlink="http://www.w3.org/1999/xlink" y="0px"><path d="M48,69.333L56,80H40L48,69.333 M48,56L24,88h48L48,56L48,56z"/><path d="M92,20v40c0,6.63-5.37,12-12,12H70l-6-8h16c2.21,0,4-1.79,4-4V20c0-2.21-1.79-4-4-4H16c-2.21,0-4,1.79-4,4v40  c0,2.21,1.79,4,4,4h16l-6,8H16C9.37,72,4,66.63,4,60V20C4,13.37,9.37,8,16,8h64C86.63,8,92,13.37,92,20z"/></svg>