<?xml version="1.0" ?><!DOCTYPE svg  PUBLIC '-//W3C//DTD SVG 1.1//EN'  'http://www.w3.org/Graphics/SVG/1.1/DTD/svg11.dtd'><svg enable-background="new 0 0 96 96" height="96px" id="anchor" version="1.1" viewBox="0 0 96 96" width="96px" x="0px" xml:space="preserve" xmlns="http://www.w3.org/2000/svg" xmlns:xlink="http://www.w3.org/1999/xlink" y="0px"><path d="M88,44c-2.209,0-4,1.791-4,4c0,18.529-14.002,33.783-32,35.773V35.476C58.896,33.697,64,27.453,64,20  c0-8.836-7.164-16-16-16c-8.836,0-16,7.164-16,16c0,7.453,5.103,13.697,12,15.476v48.298C26.001,81.783,12,66.529,12,48  c0-2.209-1.791-4-4-4s-4,1.791-4,4c0,24.301,19.7,44,44,44c24.301,0,44-19.699,44-44C92,45.791,90.209,44,88,44z M40,20  c0-4.418,3.582-8,8-8c4.418,0,8,3.582,8,8s-3.582,8-8,8C43.582,28,40,24.418,40,20z"/></svg>