<?xml version="1.0" ?><!DOCTYPE svg  PUBLIC '-//W3C//DTD SVG 1.1//EN'  'http://www.w3.org/Graphics/SVG/1.1/DTD/svg11.dtd'><svg enable-background="new 0 0 96 96" height="96px" id="bag" version="1.1" viewBox="0 0 96 96" width="96px" x="0px" xml:space="preserve" xmlns="http://www.w3.org/2000/svg" xmlns:xlink="http://www.w3.org/1999/xlink" y="0px"><path d="M68,24v-4C68,8.954,59.046,0,48,0S28,8.954,28,20v4H12v60c0,6.63,5.37,12,12,12h48c6.63,0,12-5.37,12-12V24H68z M36,20  c0-6.627,5.373-12,12-12c6.627,0,12,5.373,12,12v4H36V20z M76,84c0,2.21-1.79,4-4,4H24c-2.21,0-4-1.79-4-4V32h56V84z"/></svg>