<?xml version="1.0" ?><!DOCTYPE svg  PUBLIC '-//W3C//DTD SVG 1.1//EN'  'http://www.w3.org/Graphics/SVG/1.1/DTD/svg11.dtd'><svg enable-background="new 0 0 96 96" height="96px" id="bar_graph" version="1.1" viewBox="0 0 96 96" width="96px" x="0px" xml:space="preserve" xmlns="http://www.w3.org/2000/svg" xmlns:xlink="http://www.w3.org/1999/xlink" y="0px"><path d="M16,52C9.373,52,4,57.373,4,64v16c0,6.627,5.373,12,12,12s12-5.373,12-12V64C28,57.373,22.627,52,16,52z M20,80  c0,2.209-1.791,4-4,4s-4-1.791-4-4V64c0-2.209,1.791-4,4-4s4,1.791,4,4V80z"/><path d="M48,4c-6.627,0-12,5.373-12,12v64c0,6.627,5.373,12,12,12c6.627,0,12-5.373,12-12V16C60,9.373,54.627,4,48,4z M52,80  c0,2.209-1.791,4-4,4s-4-1.791-4-4V16c0-2.209,1.791-4,4-4s4,1.791,4,4V80z"/><path d="M80,28c-6.627,0-12,5.373-12,12v40c0,6.627,5.373,12,12,12s12-5.373,12-12V40C92,33.373,86.627,28,80,28z M84,80  c0,2.209-1.791,4-4,4s-4-1.791-4-4V40c0-2.209,1.791-4,4-4s4,1.791,4,4V80z"/></svg>