<?xml version="1.0" ?><!DOCTYPE svg  PUBLIC '-//W3C//DTD SVG 1.1//EN'  'http://www.w3.org/Graphics/SVG/1.1/DTD/svg11.dtd'><svg enable-background="new 0 0 96 96" height="96px" id="bigger" version="1.1" viewBox="0 0 96 96" width="96px" x="0px" xml:space="preserve" xmlns="http://www.w3.org/2000/svg" xmlns:xlink="http://www.w3.org/1999/xlink" y="0px"><path d="M42.8,42.8c-1.56,1.56-4.09,1.56-5.66,0L12,17.66V36c0,2.21-1.79,4-4,4s-4-1.79-4-4V8c0-2.21,1.79-4,4-4h28  c2.21,0,4,1.79,4,4s-1.79,4-4,4H17.66L42.8,37.14C44.36,38.7,44.36,41.24,42.8,42.8z"/><path d="M53.17,53.169c1.56-1.56,4.105-1.56,5.675,0L84,78.309v-18.34c0-2.21,1.79-4,4-4s4,1.79,4,4v28C92,90.179,90.18,92,87.97,92  h-28c-2.21,0-4-1.79-4-4s1.79-4,4-4h18.34L53.17,58.844C51.609,57.284,51.609,54.729,53.17,53.169z"/></svg>