<?xml version="1.0" ?><!DOCTYPE svg  PUBLIC '-//W3C//DTD SVG 1.1//EN'  'http://www.w3.org/Graphics/SVG/1.1/DTD/svg11.dtd'><svg enable-background="new 0 0 96 96" height="96px" id="breifcase" version="1.1" viewBox="0 0 96 96" width="96px" x="0px" xml:space="preserve" xmlns="http://www.w3.org/2000/svg" xmlns:xlink="http://www.w3.org/1999/xlink" y="0px"><path d="M80,24H68v-4c0-6.63-5.37-12-12-12H40c-6.63,0-12,5.37-12,12v4H16C9.373,24,4,29.373,4,36v40c0,6.627,5.373,12,12,12h64  c6.627,0,12-5.373,12-12V36C92,29.373,86.627,24,80,24z M68,32v48H28V32H68z M36,20c0-2.21,1.79-4,4-4h16c2.21,0,4,1.79,4,4v4H36V20  z M12,76V36c0-2.21,1.79-4,4-4h4v48h-4C13.79,80,12,78.21,12,76z M84,76c0,2.21-1.79,4-4,4h-4V32h4c2.21,0,4,1.79,4,4V76z"/></svg>