<?xml version="1.0" ?><!DOCTYPE svg  PUBLIC '-//W3C//DTD SVG 1.1//EN'  'http://www.w3.org/Graphics/SVG/1.1/DTD/svg11.dtd'><svg enable-background="new 0 0 96 96" height="96px" id="cd" version="1.1" viewBox="0 0 96 96" width="96px" x="0px" xml:space="preserve" xmlns="http://www.w3.org/2000/svg" xmlns:xlink="http://www.w3.org/1999/xlink" y="0px"><path d="M48,4C23.7,4,4,23.7,4,48c0,24.301,19.7,44,44,44c24.301,0,44-19.699,44-44C92,23.7,72.301,4,48,4z M48,84  c-19.882,0-36-16.118-36-36s16.118-36,36-36s36,16.118,36,36S67.882,84,48,84z"/><path d="M48,32c-8.836,0-16,7.164-16,16c0,8.837,7.164,16,16,16c8.837,0,16-7.163,16-16C64,39.164,56.837,32,48,32z M48,56  c-4.418,0-8-3.582-8-8s3.582-8,8-8s8,3.582,8,8S52.418,56,48,56z"/></svg>