<?xml version="1.0" ?><!DOCTYPE svg  PUBLIC '-//W3C//DTD SVG 1.1//EN'  'http://www.w3.org/Graphics/SVG/1.1/DTD/svg11.dtd'><svg enable-background="new 0 0 96 96" height="96px" id="cloud" version="1.1" viewBox="0 0 96 96" width="96px" x="0px" xml:space="preserve" xmlns="http://www.w3.org/2000/svg" xmlns:xlink="http://www.w3.org/1999/xlink" y="0px"><path d="M60,12c-15.707,0-29.057,10.062-33.974,24.091C25.357,36.035,24.684,36,24.001,36C10.746,36,0,46.745,0,60.001  c0,13.255,10.746,24.001,24.001,24.001c0.026,0,0.051-0.002,0.077-0.002H60c19.882,0,36-16.118,36-36S79.882,12,60,12z M60,76H24  l0,0c-8.836,0-16-7.163-16-16s7.164-16,16-16l0,0h8.298C34.24,30.434,45.896,20,60,20c15.464,0,28,12.536,28,28S75.464,76,60,76z"/></svg>