<?xml version="1.0" ?><!DOCTYPE svg  PUBLIC '-//W3C//DTD SVG 1.1//EN'  'http://www.w3.org/Graphics/SVG/1.1/DTD/svg11.dtd'><svg enable-background="new 0 0 96 96" height="96px" id="command" version="1.1" viewBox="0 0 96 96" width="96px" x="0px" xml:space="preserve" xmlns="http://www.w3.org/2000/svg" xmlns:xlink="http://www.w3.org/1999/xlink" y="0px"><path d="M72,56L72,56h-8V40h8c8.836,0,16-7.164,16-16S80.836,8,72,8c-8.837,0-16,7.164-16,16v8H40v-8c0-8.836-7.164-16-16-16  S8,15.164,8,24s7.164,16,16,16h8v16h-8l0,0l0,0c-8.836,0-16,7.164-16,16s7.164,16,16,16c8.837,0,16-7.164,16-16l0,0v-8h16v7.98  c0,0.008-0.001,0.014-0.001,0.02c0,8.836,7.164,16,16,16s16-7.164,16-16S80.836,56.002,72,56z M72,16c4.418,0,8,3.582,8,8  s-3.582,8-8,8h-8v-8C64,19.582,67.582,16,72,16z M16,24c0-4.418,3.582-8,8-8s8,3.582,8,8v8h-8C19.582,32,16,28.417,16,24z M24,80  c-4.418,0-8-3.582-8-8s3.582-8,8-8l0,0h8v8C32,76.418,28.418,80,24,80z M40,56V40h16v16H40z M72,80c-4.418,0-8-3.582-8-8l0,0v-8  h7.999c4.418,0,8,3.582,8,8S76.418,80,72,80z"/></svg>