<?xml version="1.0" ?><!DOCTYPE svg  PUBLIC '-//W3C//DTD SVG 1.1//EN'  'http://www.w3.org/Graphics/SVG/1.1/DTD/svg11.dtd'><svg enable-background="new 0 0 96 96" height="96px" id="database" version="1.1" viewBox="0 0 96 96" width="96px" x="0px" xml:space="preserve" xmlns="http://www.w3.org/2000/svg" xmlns:xlink="http://www.w3.org/1999/xlink" y="0px"><path d="M48,4C20,4,4,16,4,16v64c0,0,16,12,44,12s44-12,44-12V16C92,16,76,4,48,4z M12,20.458c1.714-0.938,4.086-2.104,7.064-3.265  C25.154,14.824,35.116,12,48,12s22.848,2.824,28.936,5.193c2.98,1.16,5.354,2.328,7.064,3.264V40v3.54  c-1.71,0.94-4.09,2.11-7.061,3.271C70.85,49.18,60.879,52,48,52s-22.85-2.82-28.94-5.189c-2.98-1.16-5.35-2.33-7.06-3.271V40V20.458  z M76.936,78.807C70.848,81.176,60.884,84,48,84s-22.846-2.824-28.936-5.193c-2.98-1.159-5.354-2.328-7.064-3.264V52.484  C19.366,55.896,31.62,60,48,60s28.634-4.104,36-7.516v23.059C82.286,76.48,79.914,77.646,76.936,78.807z"/></svg>