<?xml version="1.0" ?><!DOCTYPE svg  PUBLIC '-//W3C//DTD SVG 1.1//EN'  'http://www.w3.org/Graphics/SVG/1.1/DTD/svg11.dtd'><svg enable-background="new 0 0 96 96" height="96px" id="fast_forward" version="1.1" viewBox="0 0 96 96" width="96px" x="0px" xml:space="preserve" xmlns="http://www.w3.org/2000/svg" xmlns:xlink="http://www.w3.org/1999/xlink" y="0px"><path d="M70.343,48L47.716,25.373c-1.562-1.562-1.562-4.095,0-5.657c1.562-1.562,4.095-1.562,5.656,0l25.456,25.456  c1.562,1.562,1.562,4.095,0,5.657L53.372,76.284c-1.562,1.562-4.095,1.562-5.656,0c-1.562-1.562-1.562-4.095,0-5.657L70.343,48z"/><path d="M42.302,48L19.674,25.373c-1.562-1.562-1.562-4.095,0-5.657c1.562-1.562,4.095-1.562,5.657,0l25.455,25.456  c1.562,1.562,1.562,4.095,0,5.657L25.331,76.284c-1.562,1.562-4.095,1.562-5.657,0c-1.562-1.562-1.562-4.095,0-5.657L42.302,48z"/></svg>