<?xml version="1.0" ?><!DOCTYPE svg  PUBLIC '-//W3C//DTD SVG 1.1//EN'  'http://www.w3.org/Graphics/SVG/1.1/DTD/svg11.dtd'><svg enable-background="new 0 0 96 96" height="96px" id="grid" version="1.1" viewBox="0 0 96 96" width="96px" x="0px" xml:space="preserve" xmlns="http://www.w3.org/2000/svg" xmlns:xlink="http://www.w3.org/1999/xlink" y="0px"><path d="M80,4H16C9.37,4,4,9.37,4,16v64c0,6.63,5.37,12,12,12h64c6.63,0,12-5.37,12-12V16C92,9.37,86.63,4,80,4z M84,16v28H52V12h28  C82.21,12,84,13.79,84,16z M16,12h28v32H12V16C12,13.79,13.79,12,16,12z M12,80V52h32v32H16C13.79,84,12,82.21,12,80z M80,84H52V52  h32v28C84,82.21,82.21,84,80,84z"/></svg>