<?xml version="1.0" ?><!DOCTYPE svg  PUBLIC '-//W3C//DTD SVG 1.1//EN'  'http://www.w3.org/Graphics/SVG/1.1/DTD/svg11.dtd'><svg enable-background="new 0 0 96 96" height="96px" id="inbox" version="1.1" viewBox="0 0 96 96" width="96px" x="0px" xml:space="preserve" xmlns="http://www.w3.org/2000/svg" xmlns:xlink="http://www.w3.org/1999/xlink" y="0px"><path d="M72,12H24L0,36v36c0,6.63,5.558,12,12.188,12H84c6.63,0,12-5.37,12-12V36.125L72,12z M27.313,20h41.523l15.862,16.081L64,36  c0,8-7.164,16-16,16c-8.837,0-16-8-16-16H11.313L27.313,20z M88,72c0,2.206-1.794,4-4,4H12.188C9.917,76,8,74.168,8,72V44h17h0.242  c3.455,9.123,12.625,16,22.637,16c10.002,0,19.104-6.864,22.566-15.975L88,44.094V72z"/></svg>