<?xml version="1.0" ?><!DOCTYPE svg  PUBLIC '-//W3C//DTD SVG 1.1//EN'  'http://www.w3.org/Graphics/SVG/1.1/DTD/svg11.dtd'><svg enable-background="new 0 0 96 96" height="96px" id="mute" version="1.1" viewBox="0 0 96 96" width="96px" x="0px" xml:space="preserve" xmlns="http://www.w3.org/2000/svg" xmlns:xlink="http://www.w3.org/1999/xlink" y="0px"><path d="M40,31v33.687l-6.343-6.344L31.313,56H28h-8c-2.206,0-4-1.794-4-4v-7.833C16,41.908,17.832,40,20,40h8h3.313l2.343-2.343  l6.343-6.5 M48,12L28,32h-8c-6.63,0-12,5.537-12,12.167V52c0,6.63,5.37,12,12,12h8l20,20V12L48,12z"/><path d="M81.657,48l8.485-8.485c1.562-1.562,1.562-4.095,0-5.657c-1.562-1.562-4.096-1.562-5.657,0L76,42.343l-8.485-8.485  c-1.562-1.562-4.095-1.562-5.657,0c-1.562,1.562-1.562,4.095,0,5.657L70.343,48l-8.485,8.485c-1.562,1.562-1.562,4.095,0,5.657  c1.562,1.562,4.096,1.562,5.657,0L76,53.657l8.485,8.485c1.562,1.562,4.095,1.562,5.657,0c1.562-1.562,1.562-4.096,0-5.657  L81.657,48z"/></svg>