<?xml version="1.0" ?><!DOCTYPE svg  PUBLIC '-//W3C//DTD SVG 1.1//EN'  'http://www.w3.org/Graphics/SVG/1.1/DTD/svg11.dtd'><svg enable-background="new 0 0 96 96" height="96px" id="paper_stack" version="1.1" viewBox="0 0 96 96" width="96px" x="0px" xml:space="preserve" xmlns="http://www.w3.org/2000/svg" xmlns:xlink="http://www.w3.org/1999/xlink" y="0px"><path d="M60,88h-4H20c-2.21,0-4-1.79-4-4v-8V28V16.697C11.342,18.347,8,22.777,8,28v56c0,6.627,5.373,12,12,12h40  c5.223,0,9.653-3.343,11.303-8H60z"/><path d="M76,0H36c-6.627,0-12,5.373-12,12v56c0,6.627,5.373,12,12,12h40c6.627,0,12-5.373,12-12V12C88,5.373,82.627,0,76,0z M80,68  c0,2.21-1.79,4-4,4H36c-2.21,0-4-1.79-4-4V12c0-2.21,1.79-4,4-4h40c2.21,0,4,1.79,4,4V68z"/></svg>