<?xml version="1.0" ?><!DOCTYPE svg  PUBLIC '-//W3C//DTD SVG 1.1//EN'  'http://www.w3.org/Graphics/SVG/1.1/DTD/svg11.dtd'><svg enable-background="new 0 0 96 96" height="96px" id="paper_clip" version="1.1" viewBox="0 0 96 96" width="96px" x="0px" xml:space="preserve" xmlns="http://www.w3.org/2000/svg" xmlns:xlink="http://www.w3.org/1999/xlink" y="0px"><path d="M88.568,39.799c-1.562-1.562-4.095-1.562-5.656,0L59.993,62.719L46.143,76.569h-0.001c-7.811,7.811-20.473,7.811-28.284,0  s-7.811-20.473,0-28.284c0.002-0.002,0.005-0.006,0.007-0.008l13.845-13.844L43.333,22.81l11.294-11.294  c4.688-4.688,12.285-4.688,16.971,0c4.687,4.686,4.687,12.283,0,16.97L60.303,39.78L42.82,57.264l-7.992,7.992  c-1.562,1.562-4.095,1.562-5.657,0.001c-1.562-1.562-1.562-4.096,0-5.658l7.992-7.992l25.949-25.949  c1.562-1.562,1.562-4.095,0.001-5.657c-1.562-1.562-4.096-1.562-5.658,0l-33.94,33.942c-4.686,4.686-4.687,12.284,0,16.971  c4.686,4.686,12.285,4.686,16.971,0l36.77-36.77h-0.001c7.811-7.811,7.812-20.474,0.001-28.284  c-7.812-7.812-20.474-7.812-28.284-0.001c-0.004,0.004-0.008,0.008-0.012,0.012L12.214,42.614c-0.005,0.006-0.009,0.01-0.014,0.014  c-10.935,10.936-10.935,28.665,0,39.599c10.935,10.935,28.663,10.935,39.598,0l36.77-36.77  C90.131,43.895,90.131,41.362,88.568,39.799z"/></svg>