<?xml version="1.0" ?><!DOCTYPE svg  PUBLIC '-//W3C//DTD SVG 1.1//EN'  'http://www.w3.org/Graphics/SVG/1.1/DTD/svg11.dtd'><svg enable-background="new 0 0 96 96" height="96px" id="paragraph" version="1.1" viewBox="0 0 96 96" width="96px" x="0px" xml:space="preserve" xmlns="http://www.w3.org/2000/svg" xmlns:xlink="http://www.w3.org/1999/xlink" y="0px"><path d="M76,4H40C26.745,4,16,14.745,16,28s10.745,24,24,24h16v36c0,2.209,1.791,4,4,4s4-1.791,4-4V52v-8V12h8v76  c0,2.209,1.791,4,4,4s4-1.791,4-4V8C80,5.791,78.209,4,76,4z M24,28c0-8.836,7.164-16,16-16h16v32H40C31.164,44,24,36.836,24,28z"/></svg>