<?xml version="1.0" ?><!DOCTYPE svg  PUBLIC '-//W3C//DTD SVG 1.1//EN'  'http://www.w3.org/Graphics/SVG/1.1/DTD/svg11.dtd'><svg enable-background="new 0 0 96 96" height="96px" id="printer" version="1.1" viewBox="0 0 96 96" width="96px" x="0px" xml:space="preserve" xmlns="http://www.w3.org/2000/svg" xmlns:xlink="http://www.w3.org/1999/xlink" y="0px"><path d="M80,40h-8V20c0-6.63-5.37-12-12-12H36c-6.63,0-12,5.37-12,12v20h-8C9.37,40,4,45.37,4,52v16c0,6.63,5.37,12,12,12h8.697  c1.649,4.657,6.08,8,11.303,8h24c5.223,0,9.652-3.343,11.303-8H80c6.63,0,12-5.37,12-12V52C92,45.37,86.63,40,80,40z M32,20  c0-2.21,1.79-4,4-4h24c2.21,0,4,1.79,4,4v20H32V20z M60,80H36c-2.209,0-4-1.791-4-4s1.791-4,4-4h24c2.209,0,4,1.791,4,4  S62.209,80,60,80z M84,68c0,2.21-1.79,4-4,4h-8.697c-1.648-4.657-6.08-8-11.303-8H36c-5.223,0-9.653,3.343-11.303,8H16  c-2.21,0-4-1.79-4-4V52c0-2.21,1.79-4,4-4h64c2.21,0,4,1.79,4,4V68z"/></svg>