<?xml version="1.0" ?><!DOCTYPE svg  PUBLIC '-//W3C//DTD SVG 1.1//EN'  'http://www.w3.org/Graphics/SVG/1.1/DTD/svg11.dtd'><svg enable-background="new 0 0 96 96" height="96px" id="rewind" version="1.1" viewBox="0 0 96 96" width="96px" x="0px" xml:space="preserve" xmlns="http://www.w3.org/2000/svg" xmlns:xlink="http://www.w3.org/1999/xlink" y="0px"><path d="M25.615,48l22.627-22.627c1.562-1.562,1.562-4.095,0-5.657c-1.562-1.562-4.094-1.562-5.656,0L17.13,45.171  c-1.562,1.562-1.562,4.095,0,5.657l25.456,25.456c1.562,1.562,4.095,1.562,5.656,0c1.562-1.562,1.562-4.095,0-5.657L25.615,48z"/><path d="M53.656,48l22.628-22.627c1.562-1.562,1.562-4.095,0-5.657c-1.562-1.562-4.095-1.562-5.657,0L45.172,45.171  c-1.562,1.562-1.562,4.095,0,5.657l25.455,25.456c1.562,1.562,4.095,1.562,5.657,0c1.562-1.562,1.562-4.095,0-5.657L53.656,48z"/></svg>