<?xml version="1.0" ?><!DOCTYPE svg  PUBLIC '-//W3C//DTD SVG 1.1//EN'  'http://www.w3.org/Graphics/SVG/1.1/DTD/svg11.dtd'><svg enable-background="new 0 0 96 96" height="96px" id="smaller" version="1.1" viewBox="0 0 96 96" width="96px" x="0px" xml:space="preserve" xmlns="http://www.w3.org/2000/svg" xmlns:xlink="http://www.w3.org/1999/xlink" y="0px"><path d="M5.17,5.17c1.56-1.56,4.105-1.56,5.675,0L36,30.31V11.97c0-2.21,1.79-4,4-4s4,1.79,4,4v28c0,2.21-1.82,4.03-4.03,4.03h-28  c-2.21,0-4-1.79-4-4s1.79-4,4-4h18.34L5.17,10.845C3.61,9.285,3.61,6.729,5.17,5.17z"/><path d="M90.827,90.832c-1.56,1.56-4.104,1.56-5.673,0L60,65.692v18.34c0,2.21-1.79,4-4,4s-4-1.79-4-4v-28  C52,53.822,53.817,52,56.027,52h28c2.21,0,4,1.79,4,4s-1.79,4-4,4h-18.34l25.14,25.156C92.388,86.717,92.388,89.272,90.827,90.832z"/></svg>