<?xml version="1.0" ?><!DOCTYPE svg  PUBLIC '-//W3C//DTD SVG 1.1//EN'  'http://www.w3.org/Graphics/SVG/1.1/DTD/svg11.dtd'><svg enable-background="new 0 0 96 96" height="96px" id="speech_bubble" version="1.1" viewBox="0 0 96 96" width="96px" x="0px" xml:space="preserve" xmlns="http://www.w3.org/2000/svg" xmlns:xlink="http://www.w3.org/1999/xlink" y="0px"><g><path d="M80,12c2.206,0,4,1.794,4,4v44c0,2.206-1.794,4-4,4H48h-2.563l-2.086,1.49L28,76.454V72v-8h-8h-4c-2.206,0-4-1.794-4-4V16   c0-2.206,1.794-4,4-4H80 M80,4H16C9.373,4,4,9.373,4,16v44c0,6.627,5.373,12,12,12h4v20l28-20h32c6.627,0,12-5.373,12-12V16   C92,9.373,86.627,4,80,4L80,4z"/></g></svg>