<?xml version="1.0" ?><!DOCTYPE svg  PUBLIC '-//W3C//DTD SVG 1.1//EN'  'http://www.w3.org/Graphics/SVG/1.1/DTD/svg11.dtd'><svg enable-background="new 0 0 96 96" height="96px" id="star" version="1.1" viewBox="0 0 96 96" width="96px" x="0px" xml:space="preserve" xmlns="http://www.w3.org/2000/svg" xmlns:xlink="http://www.w3.org/1999/xlink" y="0px"><path d="M48,32.106l3.206,10.116L53.002,48h5.812h9.679l-7.592,5.081l-4.854,3.282l1.851,5.572l3.04,9.228l-8.21-6.029l-4.698-3.45  l-4.719,3.41l-8.232,5.954l3.018-9.109l1.869-5.642l-4.859-3.169L27.462,48h9.724h5.812l1.796-5.778L48,32.106 M48,6.718L37.186,40  H2.191l28.312,19.671L19.688,92.18L48,71.634l28.312,20.711L65.498,59.644L93.81,40H58.814L48,6.718L48,6.718z"/></svg>