<?xml version="1.0" ?><!DOCTYPE svg  PUBLIC '-//W3C//DTD SVG 1.1//EN'  'http://www.w3.org/Graphics/SVG/1.1/DTD/svg11.dtd'><svg enable-background="new 0 0 96 96" height="96px" id="stop" version="1.1" viewBox="0 0 96 96" width="96px" x="0px" xml:space="preserve" xmlns="http://www.w3.org/2000/svg" xmlns:xlink="http://www.w3.org/1999/xlink" y="0px"><path d="M72,12H24c-6.63,0-12,5.37-12,12v48c0,6.63,5.37,12,12,12h48c6.63,0,12-5.37,12-12V24C84,17.37,78.63,12,72,12z M76,72  c0,2.21-1.79,4-4,4H24c-2.21,0-4-1.79-4-4V24c0-2.21,1.79-4,4-4h48c2.21,0,4,1.79,4,4V72z"/></svg>