<?xml version="1.0" ?><!DOCTYPE svg  PUBLIC '-//W3C//DTD SVG 1.1//EN'  'http://www.w3.org/Graphics/SVG/1.1/DTD/svg11.dtd'><svg enable-background="new 0 0 96 96" height="96px" id="unlock" version="1.1" viewBox="0 0 96 96" width="96px" x="0px" xml:space="preserve" xmlns="http://www.w3.org/2000/svg" xmlns:xlink="http://www.w3.org/1999/xlink" y="0px"><path d="M80,44h-8V28C72,14.745,61.255,4,48,4S24,14.745,24,28v8h8v-8c0-8.836,7.164-16,16-16s16,7.164,16,16v16H32h-8h-8  C9.37,44,4,49.37,4,56v24c0,6.63,5.37,12,12,12h64c6.63,0,12-5.37,12-12V56C92,49.37,86.63,44,80,44z M84,80c0,2.21-1.79,4-4,4H16  c-2.21,0-4-1.79-4-4V56c0-2.21,1.79-4,4-4h64c2.21,0,4,1.79,4,4V80z"/></svg>