<?xml version="1.0" ?><!DOCTYPE svg  PUBLIC '-//W3C//DTD SVG 1.1//EN'  'http://www.w3.org/Graphics/SVG/1.1/DTD/svg11.dtd'><svg enable-background="new 0 0 96 96" height="96px" id="volume" version="1.1" viewBox="0 0 96 96" width="96px" x="0px" xml:space="preserve" xmlns="http://www.w3.org/2000/svg" xmlns:xlink="http://www.w3.org/1999/xlink" y="0px"><path d="M32,31v33.688l-6.343-6.345L23.313,56H20h-8c-2.206,0-4-1.794-4-4v-7.833C8,41.908,9.832,40,12,40h8h3.313l2.343-2.343  l6.343-6.5 M40,12L20,32h-8C5.37,32,0,37.537,0,44.167V52c0,6.63,5.37,12,12,12h8l20,20V12L40,12z"/><path d="M64,48c0,5.37-1.51,10.38-4.141,14.641l-6.039-5.57C55.221,54.35,56,51.27,56,48c0-3.27-0.779-6.35-2.18-9.07l6.039-5.57  C62.49,37.62,64,42.63,64,48z"/><path d="M80,48c0,9.561-3.05,18.41-8.24,25.63l-5.93-5.479C69.73,62.4,72,55.46,72,48s-2.27-14.4-6.17-20.15l5.93-5.48  C76.95,29.59,80,38.44,80,48z"/><path d="M96,48c0,13.75-4.63,26.42-12.41,36.54l-5.91-5.45C84.16,70.42,88,59.66,88,48s-3.84-22.42-10.32-31.09l5.91-5.45  C91.37,21.58,96,34.25,96,48z"/></svg>